<svg
      xmlns="http://www.w3.org/2000/svg"
      width="80"
      height="80"
      fill="none"
      viewBox="0 0 80 80"
    >
      <rect
        width="79"
        height="79"
        x="0.5"
        y="0.5"
        fill="#F5F5F5"
        rx="7.5"
      ></rect>
      <rect
        width="79"
        height="79"
        x="0.5"
        y="0.5"
        stroke="#C9C8D2"
        rx="7.5"
      ></rect>
      <rect width="64" height="64" x="8" y="8" fill="#fff" rx="2"></rect>
      <path
        fill="#9D9CAE"
        d="M42.545 41a1 1 0 011-1h3.091a1 1 0 011 1v26a1 1 0 01-1 1h-3.09a1 1 0 01-1-1V41zM32.364 53.727a1 1 0 011-1h3.09a1 1 0 011 1v13.267a1 1 0 01-1 1h-3.09a1 1 0 01-1-1V53.727zm-10.182-5.09a1 1 0 011-1h3.09a1 1 0 011 1V67a1 1 0 01-1 1h-3.09a1 1 0 01-1-1V48.636zM12 61.363a1 1 0 011-1h3.09a1 1 0 011 1v5.63a1 1 0 01-1 1H13a1 1 0 01-1-1v-5.63z"
      ></path>
      <path
        fill="#C9C8D2"
        d="M12 61.36a1 1 0 011-1h3.09a1 1 0 011 1v5.63a1 1 0 01-1 1H13a1 1 0 01-1-1v-5.63zM32.363 53.727a1 1 0 011-1h3.091a1 1 0 011 1v13.266a1 1 0 01-1 1h-3.09a1 1 0 01-1-1V53.727zM52.727 53.727a1 1 0 011-1h3.09a1 1 0 011 1v13.266a1 1 0 01-1 1h-3.09a1 1 0 01-1-1V53.727z"
      ></path>
      <path
        fill="#9D9CAE"
        d="M42.547 41a1 1 0 011-1h3.09a1 1 0 011 1v25.994a1 1 0 01-1 1h-3.09a1 1 0 01-1-1V41z"
        opacity="0.15"
      ></path>
      <path
        fill="#9D9CAE"
        d="M62.908 41a1 1 0 011-1H67a1 1 0 011 1v25.994a1 1 0 01-1 1h-3.09a1 1 0 01-1-1V41z"
      ></path>
      <rect
        width="30.17"
        height="30.17"
        x="44.246"
        y="4.543"
        fill="#fff"
        rx="1.5"
        transform="rotate(5.143 44.246 4.543)"
      ></rect>
      <rect
        width="30.17"
        height="30.17"
        x="44.246"
        y="4.543"
        stroke="#C9C8D2"
        rx="1.5"
        transform="rotate(5.143 44.246 4.543)"
      ></rect>
      <path
        fill="#454264"
        d="M57.26 13.736c.1-1.1-.718-2.093-1.817-1.98a10.389 10.389 0 1011.044 13.23c.308-1.061-.522-2.043-1.622-2.142L58.5 22.27a2 2 0 01-1.813-2.171l.573-6.364z"
      ></path>
      <path
        fill="#9D9CAE"
        d="M62.222 9.768c-1.06-.308-2.043.522-2.142 1.622l-.572 6.364a2 2 0 001.812 2.172l6.364.573c1.1.099 2.093-.72 1.98-1.818a10.39 10.39 0 00-7.442-8.913z"
      ></path>
    </svg>