<svg width="16" height="16" viewBox="0 0 16 16" fill="none" xmlns="http://www.w3.org/2000/svg">
<g id="figma">
<path id="Vector" fill-rule="evenodd" clip-rule="evenodd" d="M15 3C15 1.895 14.105 1 13 1H3C1.895 1 1 1.895 1 3V13C1 14.105 1.895 15 3 15H13C14.105 15 15 14.105 15 13V3Z" fill="#1C1842"/>
<path id="Vector_2" fill-rule="evenodd" clip-rule="evenodd" d="M9.7525 6.25195C10.72 6.25195 11.505 7.03695 11.505 8.00445C11.505 8.97195 10.72 9.75695 9.7525 9.75695C8.785 9.75695 8 8.97195 8 8.00445C8 7.03695 8.785 6.25195 9.7525 6.25195Z" fill="#0CC2FF"/>
<path id="Vector_3" fill-rule="evenodd" clip-rule="evenodd" d="M11.4972 4.5C11.4972 3.5325 10.7147 2.75 9.74719 2.75H6.24219C5.27469 2.75 4.49219 3.5325 4.49219 4.5C4.49219 5.4675 5.27469 6.25 6.24219 6.25H9.74719C10.7147 6.25 11.4972 5.4675 11.4972 4.5Z" fill="#FF7568"/>
<path id="Vector_4" fill-rule="evenodd" clip-rule="evenodd" d="M7.99469 6.25195H6.24219C5.77719 6.25195 5.33219 6.43695 5.00469 6.76445C4.67719 7.09195 4.49219 7.53695 4.49219 8.00195C4.49219 8.46695 4.67719 8.91195 5.00469 9.23945C5.33219 9.56695 5.77719 9.75195 6.24219 9.75195H7.99469V6.25195Z" fill="#AF5BFF"/>
<path id="Vector_5" fill-rule="evenodd" clip-rule="evenodd" d="M7.99469 2.75H6.24219C5.77719 2.75 5.33219 2.935 5.00469 3.2625C4.67719 3.59 4.49219 4.035 4.49219 4.5C4.49219 4.965 4.67719 5.41 5.00469 5.7375C5.33219 6.065 5.77719 6.25 6.24219 6.25H7.99469V2.75Z" fill="#FF4611"/>
<path id="Vector_6" fill-rule="evenodd" clip-rule="evenodd" d="M8.0025 9.74805H6.25C5.785 9.74805 5.34 9.93305 5.0125 10.2605C4.685 10.588 4.5 11.033 4.5 11.498C4.5 11.963 4.685 12.408 5.0125 12.7355C5.34 13.063 5.785 13.248 6.25 13.248C6.715 13.248 7.16 13.063 7.4875 12.7355C7.815 12.408 8 11.963 8 11.498V9.74805H8.0025Z" fill="#00E681"/>
</g>
</svg>
