<svg xmlns="http://www.w3.org/2000/svg" width="32" height="32" viewBox="0 0 32 32" fill="none">
  <path fill-rule="evenodd" clip-rule="evenodd" d="M30 6C30 3.79 28.21 2 26 2H6C3.79 2 2 3.79 2 6V26C2 28.21 3.79 30 6 30H26C28.21 30 30 28.21 30 26V6Z" fill="#161616"/>
  <path fill-rule="evenodd" clip-rule="evenodd" d="M19.505 12.5039C21.44 12.5039 23.01 14.0739 23.01 16.0089C23.01 17.9439 21.44 19.5139 19.505 19.5139C17.57 19.5139 16 17.9439 16 16.0089C16 14.0739 17.57 12.5039 19.505 12.5039Z" fill="#0CC2FF"/>
  <path fill-rule="evenodd" clip-rule="evenodd" d="M22.9983 9C22.9983 7.065 21.4333 5.5 19.4983 5.5H12.4883C10.5533 5.5 8.98828 7.065 8.98828 9C8.98828 10.935 10.5533 12.5 12.4883 12.5H19.4983C21.4333 12.5 22.9983 10.935 22.9983 9Z" fill="#FF7568"/>
  <path fill-rule="evenodd" clip-rule="evenodd" d="M15.9972 12.5039H12.4922C11.5622 12.5039 10.6722 12.8739 10.0172 13.5289C9.36219 14.1839 8.99219 15.0739 8.99219 16.0039C8.99219 16.9339 9.36219 17.8239 10.0172 18.4789C10.6722 19.1339 11.5622 19.5039 12.4922 19.5039H15.9972V12.5039Z" fill="#AF5BFF"/>
  <path fill-rule="evenodd" clip-rule="evenodd" d="M15.9933 5.5H12.4883C11.5583 5.5 10.6683 5.87 10.0133 6.525C9.35828 7.18 8.98828 8.07 8.98828 9C8.98828 9.93 9.35828 10.82 10.0133 11.475C10.6683 12.13 11.5583 12.5 12.4883 12.5H15.9933V5.5Z" fill="#FF4611"/>
  <path fill-rule="evenodd" clip-rule="evenodd" d="M16.0011 19.4961H12.4961C11.5661 19.4961 10.6761 19.8661 10.0211 20.5211C9.36609 21.1761 8.99609 22.0661 8.99609 22.9961C8.99609 23.9261 9.36609 24.8161 10.0211 25.4711C10.6761 26.1261 11.5661 26.4961 12.4961 26.4961C13.4261 26.4961 14.3161 26.1261 14.9711 25.4711C15.6261 24.8161 15.9961 23.9261 15.9961 22.9961V19.4961H16.0011Z" fill="#00E681"/>
</svg>
