<svg width="56" height="56" viewBox="0 0 56 56" fill="none" xmlns="http://www.w3.org/2000/svg">
<rect width="56" height="56" rx="8" fill="#F0EEFC"/>
<g>
<path d="M33.75 23.75C33.3375 23.75 32.9844 23.6031 32.6906 23.3094C32.3969 23.0156 32.25 22.6625 32.25 22.25V11.75C32.25 11.3375 32.3969 10.9844 32.6906 10.6906C32.9844 10.3969 33.3375 10.25 33.75 10.25H43.1063C43.3188 10.25 43.4969 10.3219 43.6406 10.4656C43.7844 10.6094 43.8563 10.7875 43.8563 11C43.8563 11.2125 43.7844 11.3906 43.6406 11.5344C43.4969 11.6781 43.3188 11.75 43.1063 11.75H33.75V22.25H44.25V17.375C44.25 17.1625 44.3219 16.9844 44.4656 16.8406C44.6094 16.6969 44.7875 16.625 45 16.625C45.2125 16.625 45.3906 16.6969 45.5344 16.8406C45.6781 16.9844 45.75 17.1625 45.75 17.375V22.25C45.75 22.6625 45.6031 23.0156 45.3094 23.3094C45.0156 23.6031 44.6625 23.75 44.25 23.75H33.75ZM38.6438 18.65L45.0187 12.275C45.1562 12.1375 45.325 12.0687 45.525 12.0687C45.725 12.0687 45.9 12.1375 46.05 12.275C46.2 12.4125 46.275 12.5875 46.275 12.8C46.275 13.0125 46.2 13.1937 46.05 13.3438L39.1688 20.225C39.0188 20.375 38.8438 20.45 38.6438 20.45C38.4438 20.45 38.2688 20.375 38.1188 20.225L34.9313 17.0375C34.7938 16.9 34.725 16.725 34.725 16.5125C34.725 16.3 34.7938 16.125 34.9313 15.9875C35.0688 15.85 35.2438 15.7812 35.4563 15.7812C35.6688 15.7812 35.8438 15.85 35.9812 15.9875L38.6438 18.65Z" fill="#6759DF"/>
</g>
<g clip-path="url(#clip0_13019_30528)">
<path d="M17 25.4375C21.6599 25.4375 25.4375 21.6599 25.4375 17C25.4375 12.3401 21.6599 8.5625 17 8.5625C12.3401 8.5625 8.5625 12.3401 8.5625 17C8.5625 21.6599 12.3401 25.4375 17 25.4375Z" fill="#BEB8F1"/>
<path d="M14.1875 15.875C14.4982 15.875 14.75 15.6232 14.75 15.3125C14.75 15.0018 14.4982 14.75 14.1875 14.75C13.8768 14.75 13.625 15.0018 13.625 15.3125C13.625 15.6232 13.8768 15.875 14.1875 15.875Z" fill="#6759DF"/>
<path d="M19.8125 15.877C20.1232 15.877 20.375 15.6251 20.375 15.3145C20.375 15.0038 20.1232 14.752 19.8125 14.752C19.5018 14.752 19.25 15.0038 19.25 15.3145C19.25 15.6251 19.5018 15.877 19.8125 15.877Z" fill="#6759DF"/>
<path d="M17.0218 22.344C16.0541 22.3424 15.1039 22.0855 14.2671 21.5994C13.4303 21.1132 12.7365 20.415 12.2558 19.5751C12.2375 19.543 12.2256 19.5076 12.221 19.471C12.2163 19.4343 12.219 19.3971 12.2287 19.3615C12.2384 19.3259 12.2551 19.2925 12.2777 19.2633C12.3003 19.2341 12.3285 19.2096 12.3605 19.1913C12.3926 19.173 12.428 19.1612 12.4646 19.1565C12.5013 19.1519 12.5385 19.1545 12.5741 19.1642C12.6098 19.174 12.6431 19.1906 12.6723 19.2132C12.7015 19.2359 12.726 19.264 12.7443 19.2961C13.1711 20.0449 13.7871 20.6685 14.5305 21.1047C15.274 21.5408 16.1189 21.7741 16.9808 21.7813C17.8427 21.7884 18.6913 21.5692 19.442 21.1456C20.1926 20.7219 20.8188 20.1086 21.258 19.367C21.2961 19.3028 21.3581 19.2564 21.4304 19.238C21.5027 19.2196 21.5793 19.2306 21.6435 19.2687C21.7076 19.3067 21.754 19.3688 21.7725 19.441C21.7909 19.5133 21.7799 19.59 21.7418 19.6541C21.2543 20.4719 20.5633 21.1495 19.7362 21.6209C18.909 22.0923 17.9739 22.3414 17.0218 22.344Z" fill="#6759DF"/>
</g>
<g>
<path d="M17.0195 47.4375C21.6794 47.4375 25.457 43.6599 25.457 39C25.457 34.3401 21.6794 30.5625 17.0195 30.5625C12.3596 30.5625 8.58203 34.3401 8.58203 39C8.58203 43.6599 12.3596 47.4375 17.0195 47.4375Z" fill="#BEB8F1"/>
<path d="M14.1875 37.875C14.4982 37.875 14.75 37.6232 14.75 37.3125C14.75 37.0018 14.4982 36.75 14.1875 36.75C13.8768 36.75 13.625 37.0018 13.625 37.3125C13.625 37.6232 13.8768 37.875 14.1875 37.875Z" fill="#6759DF"/>
<path d="M19.8125 37.877C20.1232 37.877 20.375 37.6251 20.375 37.3145C20.375 37.0038 20.1232 36.752 19.8125 36.752C19.5018 36.752 19.25 37.0038 19.25 37.3145C19.25 37.6251 19.5018 37.877 19.8125 37.877Z" fill="#6759DF"/>
<path d="M20.9143 43.8474C20.8745 43.8474 20.8352 43.839 20.799 43.8227C20.7627 43.8065 20.7303 43.7827 20.7039 43.7529C20.2421 43.2324 19.6752 42.8157 19.0405 42.5303C18.4059 42.2449 17.7179 42.0974 17.0221 42.0974C16.3262 42.0974 15.6383 42.2449 15.0036 42.5303C14.369 42.8157 13.802 43.2324 13.3402 43.7529C13.3157 43.7806 13.286 43.8032 13.2528 43.8195C13.2195 43.8357 13.1834 43.8452 13.1465 43.8474C13.1096 43.8497 13.0726 43.8447 13.0376 43.8326C13.0026 43.8206 12.9704 43.8018 12.9427 43.7773C12.915 43.7528 12.8924 43.723 12.8762 43.6898C12.8599 43.6566 12.8504 43.6204 12.8482 43.5835C12.8459 43.5466 12.851 43.5096 12.863 43.4746C12.875 43.4397 12.8938 43.4074 12.9184 43.3797C13.4329 42.7997 14.0646 42.3355 14.7718 42.0175C15.4789 41.6996 16.2455 41.5352 17.0208 41.5352C17.7962 41.5352 18.5627 41.6996 19.2698 42.0175C19.977 42.3355 20.6087 42.7997 21.1233 43.3797C21.1592 43.4202 21.1828 43.4703 21.191 43.5239C21.1992 43.5774 21.1917 43.6322 21.1695 43.6817C21.1473 43.7311 21.1113 43.7731 21.0659 43.8025C21.0204 43.832 20.9674 43.8477 20.9132 43.8477L20.9143 43.8474Z" fill="#6759DF"/>
</g>
<g>
<path d="M33.75 45.75C33.3375 45.75 32.9844 45.6031 32.6906 45.3094C32.3969 45.0156 32.25 44.6625 32.25 44.25V33.75C32.25 33.3375 32.3969 32.9844 32.6906 32.6906C32.9844 32.3969 33.3375 32.25 33.75 32.25H43.1063C43.3188 32.25 43.4969 32.3219 43.6406 32.4656C43.7844 32.6094 43.8563 32.7875 43.8563 33C43.8563 33.2125 43.7844 33.3906 43.6406 33.5344C43.4969 33.6781 43.3188 33.75 43.1063 33.75H33.75V44.25H44.25V39.375C44.25 39.1625 44.3219 38.9844 44.4656 38.8406C44.6094 38.6969 44.7875 38.625 45 38.625C45.2125 38.625 45.3906 38.6969 45.5344 38.8406C45.6781 38.9844 45.75 39.1625 45.75 39.375V44.25C45.75 44.6625 45.6031 45.0156 45.3094 45.3094C45.0156 45.6031 44.6625 45.75 44.25 45.75H33.75Z" fill="#6759DF"/>
</g>
</svg>
