<svg width="160" height="73" viewBox="0 0 160 73" fill="none" xmlns="http://www.w3.org/2000/svg">
<rect width="160" height="73" fill="white"/>
<rect x="20" y="16" width="27.033" height="41" rx="0.901099" fill="#E8E8EC"/>
<rect x="23.375" y="21.125" width="8.4478" height="13.6667" rx="0.450549" fill="white"/>
<rect x="23.375" y="38.207" width="20.2747" height="3.41667" rx="0.450549" fill="white"/>
<rect x="23.375" y="45.0391" width="20.2747" height="8.54167" rx="0.450549" fill="#1C1842"/>
<rect x="35.2031" y="21.125" width="8.4478" height="13.6667" rx="0.450549" fill="white"/>
<path d="M28.4453 16H38.5827V17.2578C38.5827 17.5066 38.381 17.7083 38.1321 17.7083H28.8959C28.647 17.7083 28.4453 17.5066 28.4453 17.2578V16Z" fill="#1C1842"/>
<rect x="66.8594" y="16" width="27.033" height="41" rx="0.901099" fill="#E8E8EC"/>
<path d="M75.3047 16H85.4421V17.2578C85.4421 17.5066 85.2403 17.7083 84.9915 17.7083H75.7552C75.5064 17.7083 75.3047 17.5066 75.3047 17.2578V16Z" fill="#1C1842"/>
<rect x="70.2344" y="21.125" width="20.2747" height="13.6667" rx="0.450549" fill="white"/>
<rect x="70.2344" y="38.207" width="20.2747" height="3.41667" rx="0.450549" fill="white"/>
<rect x="73.6172" y="43.332" width="13.5165" height="3.41667" rx="0.450549" fill="white"/>

<rect x="113" y="16" width="27.033" height="41" rx="0.901099" fill="#E8E8EC"/>
<path d="M121.445 16H131.583V17.2578C131.583 17.5066 131.381 17.7083 131.132 17.7083H121.896C121.647 17.7083 121.445 17.5066 121.445 17.2578V16Z" fill="#1C1842"/>
<rect x="116.375" y="32.668" width="20.2747" height="13.6667" rx="0.450549" fill="white"/>
<rect x="116.375" y="21.125" width="20.2747" height="3.41667" rx="0.450549" fill="white"/>
<rect x="119.758" y="26.25" width="13.5165" height="3.41667" rx="0.450549" fill="white"/>
<path d="M45.2344 36.9505C45.11 36.9505 45.0091 37.0514 45.0091 37.1758C45.0091 37.3002 45.11 37.4011 45.2344 37.4011V36.9505ZM68.8222 37.3351C68.9102 37.2471 68.9102 37.1045 68.8222 37.0165L67.3886 35.5828C67.3006 35.4949 67.158 35.4949 67.07 35.5828C66.982 35.6708 66.982 35.8135 67.07 35.9014L68.3444 37.1758L67.07 38.4501C66.982 38.5381 66.982 38.6807 67.07 38.7687C67.158 38.8567 67.3006 38.8567 67.3886 38.7687L68.8222 37.3351ZM45.2344 37.4011H68.6629V36.9505H45.2344V37.4011Z" fill="#C9C8D2"/>
<path d="M91 36.9505C90.8756 36.9505 90.7747 37.0514 90.7747 37.1758C90.7747 37.3002 90.8756 37.4011 91 37.4011V36.9505ZM114.588 37.3351C114.676 37.2471 114.676 37.1045 114.588 37.0165L113.154 35.5828C113.066 35.4949 112.924 35.4949 112.836 35.5828C112.748 35.6708 112.748 35.8135 112.836 35.9014L114.11 37.1758L112.836 38.4501C112.748 38.5381 112.748 38.6807 112.836 38.7687C112.924 38.8567 113.066 38.8567 113.154 38.7687L114.588 37.3351ZM91 37.4011H114.429V36.9505H91V37.4011Z" fill="#C9C8D2"/>
</svg>
