<svg width="24" height="24" viewBox="0 0 24 24" fill="none" xmlns="http://www.w3.org/2000/svg">
<mask id="mask0_13507_31800" style="mask-type:alpha" maskUnits="userSpaceOnUse" x="0" y="0" width="24" height="24">
<rect width="24" height="24" fill="#D9D9D9"/>
</mask>
<g mask="url(#mask0_13507_31800)">
<path d="M11.1348 10.808H13.1348V11.9195C13.1348 12.0233 13.1799 12.0945 13.2703 12.133C13.3606 12.1713 13.4443 12.152 13.5213 12.0752L15.2173 10.379C15.3109 10.2855 15.3578 10.1785 15.3578 10.058C15.3578 9.93746 15.3109 9.83037 15.2173 9.73671L13.5213 8.04071C13.4443 7.96371 13.3606 7.94446 13.2703 7.98296C13.1799 8.02146 13.1348 8.09262 13.1348 8.19646V9.30796H11.1348C10.3719 9.30796 9.72285 9.57554 9.18752 10.1107C8.65235 10.646 8.38477 11.2951 8.38477 12.058V13.308C8.38477 13.5208 8.45652 13.699 8.60002 13.8425C8.74368 13.9861 8.92193 14.058 9.13477 14.058C9.34743 14.058 9.5256 13.9861 9.66927 13.8425C9.81277 13.699 9.88452 13.5208 9.88452 13.308V12.058C9.88452 11.7105 10.006 11.4152 10.249 11.1722C10.492 10.9294 10.7873 10.808 11.1348 10.808ZM2.13477 20.231C1.92193 20.231 1.74368 20.1591 1.60002 20.0155C1.45652 19.872 1.38477 19.6938 1.38477 19.481C1.38477 19.2681 1.45652 19.09 1.60002 18.9465C1.74368 18.8028 1.92193 18.731 2.13477 18.731H21.8653C22.0781 18.731 22.2563 18.8028 22.4 18.9465C22.5435 19.09 22.6153 19.2681 22.6153 19.481C22.6153 19.6938 22.5435 19.872 22.4 20.0155C22.2563 20.1591 22.0781 20.231 21.8653 20.231H2.13477ZM4.30777 17.731C3.8026 17.731 3.37502 17.556 3.02502 17.206C2.67502 16.856 2.50002 16.4284 2.50002 15.9232V5.53871C2.50002 5.03354 2.67502 4.60596 3.02502 4.25596C3.37502 3.90596 3.8026 3.73096 4.30777 3.73096H19.6923C20.1974 3.73096 20.625 3.90596 20.975 4.25596C21.325 4.60596 21.5 5.03354 21.5 5.53871V15.9232C21.5 16.4284 21.325 16.856 20.975 17.206C20.625 17.556 20.1974 17.731 19.6923 17.731H4.30777ZM4.30777 16.231H19.6923C19.7693 16.231 19.8398 16.199 19.9038 16.135C19.9679 16.0708 20 16.0002 20 15.9232V5.53871C20 5.46171 19.9679 5.39121 19.9038 5.32721C19.8398 5.26304 19.7693 5.23096 19.6923 5.23096H4.30777C4.23077 5.23096 4.16027 5.26304 4.09627 5.32721C4.0321 5.39121 4.00002 5.46171 4.00002 5.53871V15.9232C4.00002 16.0002 4.0321 16.0708 4.09627 16.135C4.16027 16.199 4.23077 16.231 4.30777 16.231Z" fill="#1C1B1F"/>
</g>
</svg>
