<svg width="24" height="24" viewBox="0 0 24 24" fill="none" xmlns="http://www.w3.org/2000/svg">
<mask id="mask0_12875_95085" style="mask-type:alpha" maskUnits="userSpaceOnUse" x="0" y="0" width="24" height="24">
<rect width="24" height="24" fill="#D9D9D9"/>
</mask>
<g mask="url(#mask0_12875_95085)">
<path d="M14.2216 11.3727L12.1563 9.30743H13.1333V8.19593C13.1333 8.0921 13.1785 8.02093 13.2688 7.98243C13.3592 7.94393 13.4428 7.96318 13.5198 8.04018L15.2158 9.73618C15.3095 9.82985 15.3563 9.93693 15.3563 10.0574C15.3563 10.1779 15.3095 10.2849 15.2158 10.3784L14.2216 11.3727ZM20.4101 17.5612L19.0601 16.2112H19.7678C19.8383 16.192 19.8944 16.1536 19.9361 16.0959C19.9778 16.0381 19.9986 15.9803 19.9986 15.9227V5.53818C19.9986 5.44851 19.9698 5.37476 19.9121 5.31693C19.8544 5.25926 19.7807 5.23043 19.6908 5.23043H8.07935L6.57935 3.73043H19.6908C20.196 3.73043 20.6236 3.90543 20.9736 4.25543C21.3236 4.60543 21.4986 5.03301 21.4986 5.53818V15.9227C21.4986 16.2792 21.4034 16.6038 21.2131 16.8967C21.0226 17.1897 20.7549 17.4112 20.4101 17.5612ZM18.1216 20.2304H2.13335C1.92051 20.2304 1.74226 20.1586 1.5986 20.0149C1.4551 19.8714 1.38335 19.6933 1.38335 19.4804C1.38335 19.2676 1.4551 19.0894 1.5986 18.9459C1.74226 18.8023 1.92051 18.7304 2.13335 18.7304H16.6063L15.6063 17.7304H4.30634C3.80118 17.7304 3.37359 17.5554 3.0236 17.2054C2.6736 16.8554 2.4986 16.4278 2.4986 15.9227V5.44593C2.4986 5.33693 2.52743 5.23918 2.5851 5.15268C2.64293 5.06601 2.71668 4.9971 2.80634 4.94593L1.55635 3.68043C1.41785 3.53176 1.34701 3.35776 1.34385 3.15843C1.34068 2.95893 1.4166 2.78168 1.5716 2.62668C1.7166 2.48168 1.89226 2.40918 2.0986 2.40918C2.30493 2.40918 2.4806 2.48168 2.6256 2.62668L21.3716 21.3727C21.5101 21.5112 21.5809 21.6853 21.5841 21.8949C21.5874 22.1044 21.5166 22.2817 21.3716 22.4267C21.2268 22.5715 21.0512 22.6439 20.8448 22.6439C20.6383 22.6439 20.4627 22.5715 20.3178 22.4267L18.1216 20.2304ZM10.0371 12.1764C9.98576 12.2343 9.94726 12.2936 9.9216 12.3544C9.89593 12.4153 9.8831 12.4906 9.8831 12.5804V13.3074C9.8831 13.5203 9.81135 13.6984 9.66785 13.8419C9.52418 13.9856 9.34601 14.0574 9.13335 14.0574C8.92051 14.0574 8.74226 13.9856 8.5986 13.8419C8.4551 13.6984 8.38335 13.5203 8.38335 13.3074V12.0574C8.38335 11.8099 8.41251 11.5836 8.47085 11.3784C8.52918 11.1734 8.61276 10.9959 8.7216 10.8459L4.23909 6.36318C4.1621 6.39518 4.10276 6.43526 4.06109 6.48343C4.01943 6.53143 3.99859 6.59068 3.99859 6.66118V15.9227C3.99859 16.0125 4.02743 16.0863 4.0851 16.1439C4.14276 16.2016 4.21651 16.2304 4.30634 16.2304H14.0911L10.0371 12.1764Z" fill="#1C1B1F"/>
</g>
</svg>
